v -1.2999999999999998 2.7 -1.5
vt 1.0 0.5
v -1.376120467488713 2.7 -1.8826834323650898
vt 0.9619397662556434 0.3086582838174551
v -1.5928932188134524 2.7 -2.2071067811865475
vt 0.8535533905932737 0.14644660940672627
v -1.91731656763491 2.7 -2.423879532511287
vt 0.6913417161825449 0.03806023374435663
v -2.3 2.7 -2.5
vt 0.5 0.0
v -2.6826834323650894 2.7 -2.423879532511287
vt 0.30865828381745514 0.03806023374435663
v -3.0071067811865473 2.7 -2.2071067811865475
vt 0.14644660940672627 0.14644660940672627
v -3.223879532511287 2.7 -1.8826834323650898
vt 0.03806023374435663 0.3086582838174551
v -3.3 2.7 -1.5000000000000002
vt 0.0 0.4999999999999999
v -3.223879532511287 2.7 -1.1173165676349104
vt 0.038060233744356575 0.6913417161825448
v -3.0071067811865477 2.7 -0.7928932188134525
vt 0.14644660940672616 0.8535533905932737
v -2.6826834323650903 2.7 -0.5761204674887135
vt 0.30865828381745486 0.9619397662556433
v -2.3 2.7 -0.5
vt 0.4999999999999999 1.0
v -1.9173165676349098 2.7 -0.5761204674887134
vt 0.691341716182545 0.9619397662556433
v -1.5928932188134524 2.7 -0.7928932188134523
vt 0.8535533905932737 0.8535533905932738
v -1.3761204674887133 2.7 -1.1173165676349095
vt 0.9619397662556433 0.6913417161825453
v -2.3 2.7 -1.5
vt 0.5 0.5
vn 0 1 0
f 17/17/1 1/1/1 2/2/1
f 17/17/1 2/2/1 3/3/1
f 17/17/1 3/3/1 4/4/1
f 17/17/1 4/4/1 5/5/1
f 17/17/1 5/5/1 6/6/1
f 17/17/1 6/6/1 7/7/1
f 17/17/1 7/7/1 8/8/1
f 17/17/1 8/8/1 9/9/1
f 17/17/1 9/9/1 10/10/1
f 17/17/1 10/10/1 11/11/1
f 17/17/1 11/11/1 12/12/1
f 17/17/1 12/12/1 13/13/1
f 17/17/1 13/13/1 14/14/1
f 17/17/1 14/14/1 15/15/1
f 17/17/1 15/15/1 16/16/1
f 17/17/1 16/16/1 1/1/1
