<svg host="65bd71144e" xmlns="http://www.w3.org/2000/svg" xmlns:xlink="http://www.w3.org/1999/xlink" version="1.1" width="831px" height="701px" viewBox="-0.5 -0.5 831 701" content="&lt;mxfile&gt;&lt;diagram id=&quot;WOCmaAUFVjRaliRkvo80&quot; name=&quot;Page-1&quot;&gt;7V1bc6M4Fv41PMbFHfGIE7u3tnpqMpuq3al5Izax6cbGg3EnmV+/OkLCBh1ubbDpxHZVYgsB4ly+c9GRrBj3m7cvib9b/xYvg0jR1eWbYjwouq6rlkn/Qct71uI4atawSsJl1qQdG57CfwLeKLodwmWwL3RM4zhKw12xcRFvt8EiLbT5SRK/Fru9xFHxrjt/FUgNTws/klv/Fy7TddZKLPXY/q8gXK3FnTWVH9n4ojNv2K/9Zfx60mTMFOM+ieM0+7R5uw8iIJ6gS3bevOJoPrAk2KZtTjD4GT/86MAfjg8sfRdPS8e4g48JI+X0JYyi+ziKE3bUCNiLtu/TJP4eiCPbeAuN/OpBkgZvlUPU8genEhPEmyBN3mmXtyLTuawIIr+eEN7gbesTotsub/Q5s1f5lY/0oB84SSrIo59Lnuw1IHksV2+ij26SoejjNNNnlcSHXeWDchX1n0V3tSsBbLMoILZMAEw+jD4e325+/KW/XwfQX6X8jvznIHqM92EaxluQmWw8Uz8KV/A9Cl7gqxCpzdsKAHSy2iyjyWIdLL4/x2+SLFEps9mrJH1cxrLOAqd0uNt+l6HiS/gGQ2snhhmvZTZcgs5WRzpLTwjPFlIA/1piwHOcpvHmpIPHOZHGuxO+LCgVgqSKM4d9kOyrVLyEBw57Z1fKkF89lwH8DKOgBQ6CAjJzNPt85pgtTMjgGKBdDwPIJ8IAs4INF6CzQPmRYkCwDNPhIaCK/sIXKHoCMgQgvNH74I0xAghwrgYBpvmZIMC4HgS08MavCAFb/0e48tPKWKhHGKjgwbVhoIU7XB8tTR/gjYn2McwU1NL6iZ9stYgbeax+SjBUom2tB5IhAdTMUqaa4s6Uma0QVfEcZeYq7oPi0UOOQlyFkHqxL9G4jTC+sBdtT4J9+E8OE0Djl3ibYgFtO0m1G9GiFi6SIPLT8Ecx73IOwa0W3modMV/XYRo87fwFtL1S5Udgmx4Nt6uv7Bu7RomEJnsdewKhbd6NJ7s0A+dFBddQFuNYdhbb3gtnNDFRU0lHLvI7PsYhHUl+u7v8QuKc+OVlH6QS3/ORthMFxGxLuqdJ0kHpBlxep5uIc6VRwXiTZEbKHNqEyyXcBpUy6j9tl7lYDqKVeMbNlAHRHMiC2G1YYtxYghmpwXiCOPcST2QQ/XQ8cS7IkhZp16IjXCbpqanRZSvXzs7QIwv2Kjux++9BuljjLLAcePfEAlJSCyT5rQ3GBCTxQ9XBo46aDQriuopHKs1HiSoqe9XJetGrYP7BKRPNthS1m9O4w5HMbZbbGkksRLKYEGYOUz711jpCqKJJ8YxTd0erJtDPOjv8ZnflU3rxdQQ4tUaMU9zGgt00Cf3tKkJCiSMk/PSMVyYnlfxQJ8UIN/9+KsOICFv9MKh48ztd3L1fhrVIqV0G4vHI+2oQT1pCvN0DXjmyO/qUQoZHV9sC+3xuqkQ7E9jlQLAVZZ3mVJ2mGxNLd01Nc2zTUS3i9ABsrckrT+sJ8lb6k0PYzaqKhl+M7HjwPIw5kTN9gnOV0dkQnPsQHDLVAThEWhh8YRHomeFuDyQvZr4w+10wAuWEVWPklqWgytMfUvfK9PyJVyLl9ltZJMSdpE7NMgyO3bs4KlWClEeIzoSKDqEDyESp6DoYsiWzZSnrY46edM16Nrl/6PTTcUZDmmvqPsdB1FrSWhNHM3Viib+lOQ/86GloPrEKXXSZ8BVdzuJDhxmSm1b+rFY2eJS6WhQWjZiyIlqIIlo9CEDXzE2TIu6ig1x61Lsu1hPULMVjJhKPIcDWA67Zsj6JFNAJQYspQSxpWKRyVSJLltI+xLEc4CCpXQ2LZntJyHQtrBukcgGfkrQdeKMSLKPMGLKPDgIjA9lzW+/It0ELH/ZRuAwSYMyzn9CL0+O2NSGAPjH48CkQSFNVlJclrkMON4A8xNrf0jCA2zGrzGNhHh5CSGdkz7KNE7hqmeXVmQ1V1R6m92WJGUAyRGFEIb5AJ0zPFw2rhUqPvgjDRLI86BRzL2keC/HKoNKCKFMbPkw1ZTr9UGUZmZCMqSyjq1/0KcsyqtjWrSyDGB2ZWFGVIa7Ta95CrGb5fEUZVczNo5YiQl5uttltUwDwIYsyurHkkkUZ7ihKjkfruDcw7nqOuyt7Z+MLWLtR76IBq4u5ap+iGKkbFl2wGMnt6rrdYtF+Y9Fu6nrJWNRBph1AW+8VioM0aKJWzCPQ4s2VqavMCCiy9yG9u27rF7FV3PZA+ivgspFJNL6luk6ZRDnkybHu52MSkqQYikmkRcLvNnEUKOdNHNXz3yGl2dyCNBjqBadzuxaHjWA6V6+l7S86ndsiCrtp5VW1UnDkElrZdTJtBFppfkStbLEjw00rh9VKUqqxoNYRK9IeqsqixTqDEVZZkFqSXq/KQuwUdVOoESkUVj04kDq5fVcPXkSd3PoCwuupE/nrT+O/X7Tv2+T39Nvd4t+zx7++3LXJog29hYpjFAPcC26hgtPkM22tVCMVtfP0l+VIV8P6ITdi68SqK+/Oho41n7K5Ktqo40IbTe1q5j4c3HC5GA/eaGIh2EgB5zK7vnXj1ZU3gaoY7Ah2iHPssQHOKIo4rgs419tNrmJA495q9nJ7zHXj1zhBp4W3OjjouCMDHa2F6/fRQadie4nr8aSr5/mJvJz6rUCuBTi/29/8bfqHFtqHb+F//pzPfnvc4DkcOxKL3xmeCErZfx/gNx6mrMwI3qdN9or9n5nKlLClBw7UYpD744oDftnn5NjZUrwZr4KjA4GVC/TcuULxJyvZgNNtdkHCKuWIQub4daYPimuwig9XIQ9sL6N7ZeqxK7tQq4OcNYeCEXpNGDMd5JydPofO0DJVPItfxyO8BZ6LDsOEbnBTwpZU0Ft4CmEVKESD/vzKLnJT3kJ5lZFXNJc0R8g0lf4oPlStFjjJWe6CJKQSAQohTno8NjXUrIocNpEzx3P2wrBwOrs3vfJKgvqc8rHspac1OOWyTk2uitVVRJ00u4c0BapPGrLLSrBcBU/8K9TYxat460ezY2upHujY52sMkMeo9S1I03fOKP+QxkX2t+ViNjYYUD3F6fjjQ7IIap+UEzb1k1Ug7E0Fv3pffFM/pP7RjCEPqLYF8AJVZrbiqdVwVFp15bDatAzfKOJpysyAQxQuAD1of5V1fgA8hNM9hmZ5nwzNVPZhCleou6AJp5OpgCwb6+zAnm8UoJBDfBe4G3bVYdcSqZvdcRdGh9FNXKi5ffZhWvFBZyPPBso+747ejjoh/WChWcpNIuXU+UZUp1jYx2/qVGgjlgg7Rxtld6GFpt3k+NeWYx1bq4EJsjOcIGOZwHME2WHuJXMdKQhTjzdrAcy3QZyphwn+s8c+yKXmmMVBHFeV+89cVzAr0Lhe+KY9v7b2YKvSL20GsJRxs/ZoLrwrtEfnThD1d6ZWV5E8bCJvkcatKm7wHMSJ2FIxjcItFSvxs42qJCbjEN0ehEsv/V6NIX5IqiEL1ceGBxWy1SL13dfKxAvyKk+c9RQn66VpJEOXGWdhJlUfjHHYrmItQIHZVNw3LFvA6rVaELuxcAmM41yYSxb1zFwWRrk89KNRUvYBOmctHgJAWW4KbKvcOR9YlsjS+U3B1jea+Esb2THi1qmRfQ32aT8aoZWgzEQ2J8j7FFJH5a0vW+gE/Xr8edxsg4njjwwbs/8D&lt;/diagram&gt;&lt;/mxfile&gt;">
    <defs/>
    <g>
        <rect x="0" y="7" width="830" height="690" fill="#eeeeee" stroke="none" pointer-events="all"/>
        <rect x="582" y="7" width="248" height="690" fill="#333333" stroke="none" pointer-events="all"/>
        <rect x="630" y="17" width="30" height="30" rx="3" ry="3" fill="none" stroke="#666666" stroke-width="2" pointer-events="none"/>
        <rect x="630" y="17" width="0" height="0" fill="none" stroke="#666666" stroke-width="2" pointer-events="none"/>
        <path d="M 641 40 L 641 36 C 642.01 34.6 644.21 33.51 647 33 L 651 33 C 653.79 33.51 655.99 34.6 657 36 L 657 40 Z" fill="#737373" stroke="none" pointer-events="none"/>
        <ellipse cx="649" cy="28" rx="4" ry="4" fill="#737373" stroke="none" pointer-events="none"/>
        <path d="M 633 40 L 633 36 C 634.01 34.6 636.21 33.51 639 33 L 643 33 C 645.79 33.51 647.99 34.6 649 36 L 649 40 Z" fill="#737373" stroke="none" pointer-events="none"/>
        <ellipse cx="641" cy="28" rx="4" ry="4" fill="#737373" stroke="none" pointer-events="none"/>
        <rect x="600" y="17" width="30" height="30" rx="3" ry="3" fill="none" stroke="#666666" stroke-width="2" pointer-events="none"/>
        <rect x="600" y="17" width="0" height="0" fill="none" stroke="#666666" stroke-width="2" pointer-events="none"/>
        <path d="M 618.75 24.92 L 622.08 28.25 L 609.58 40.75 L 605 42 L 606.25 37.42 Z" fill="#737373" stroke="none" pointer-events="none"/>
        <path d="M 619.17 24.5 L 621.67 22 L 625 25.33 L 622.5 27.83 Z" fill="#737373" stroke="none" pointer-events="none"/>
        <rect x="660" y="17" width="30" height="30" rx="3" ry="3" fill="none" stroke="#666666" stroke-width="2" pointer-events="none"/>
        <rect x="660" y="17" width="0" height="0" fill="none" stroke="#666666" stroke-width="2" pointer-events="none"/>
        <path d="M 675 22 C 680.52 22 685 26.48 685 32 C 685 37.52 680.52 42 675 42 C 669.48 42 665 37.52 665 32 C 665 26.48 669.48 22 675 22 Z M 680.83 26.17 L 672.92 29.92 L 669.17 37.83 L 677.08 34.08 L 680.83 26.17 Z M 675 30.75 C 675.69 30.75 676.25 31.31 676.25 32 C 676.25 32.69 675.69 33.25 675 33.25 C 674.31 33.25 673.75 32.69 673.75 32 C 673.75 31.31 674.31 30.75 675 30.75 Z" fill="#737373" stroke="none" pointer-events="none"/>
        <rect x="590" y="57" width="230" height="361" fill="#000000" stroke="#000000" pointer-events="none" transform="translate(2,3)" opacity="0.25"/>
        <rect x="590" y="57" width="230" height="361" fill="#bdbdbd" stroke="#eeeeee" pointer-events="none"/>
        <rect x="590" y="57" width="230" height="30" fill="#ffffff" stroke="none" pointer-events="none"/>
        <g fill="#333333" font-family="Helvetica" pointer-events="none" text-anchor="middle" font-size="12px">
            <text x="704.5" y="76.5">
                属性面版
            </text>
        </g>
        <rect x="590" y="310" width="230" height="108" fill="#ffffff" stroke="none" pointer-events="none"/>
        <g transform="translate(-0.5 -0.5)">
            <switch>
                <foreignObject style="overflow: visible; text-align: left;" pointer-events="none" width="100%" height="100%" requiredFeatures="http://www.w3.org/TR/SVG11/feature#Extensibility">
                    <div xmlns="http://www.w3.org/1999/xhtml" style="display: flex; align-items: unsafe center; justify-content: unsafe center; width: 38px; height: 1px; padding-top: 107px; margin-left: 601px;">
                        <div style="box-sizing: border-box; font-size: 0; text-align: center; ">
                            <div style="display: inline-block; font-size: 12px; font-family: Helvetica; color: #333333; line-height: 1.2; pointer-events: none; white-space: normal; word-wrap: normal; ">
                                属性1
                            </div>
                        </div>
                    </div>
                </foreignObject>
                <text x="620" y="111" fill="#333333" font-family="Helvetica" font-size="12px" text-anchor="middle">
                    属性1
                </text>
            </switch>
        </g>
        <g transform="translate(-0.5 -0.5)">
            <switch>
                <foreignObject style="overflow: visible; text-align: left;" pointer-events="none" width="100%" height="100%" requiredFeatures="http://www.w3.org/TR/SVG11/feature#Extensibility">
                    <div xmlns="http://www.w3.org/1999/xhtml" style="display: flex; align-items: unsafe center; justify-content: unsafe center; width: 38px; height: 1px; padding-top: 167px; margin-left: 601px;">
                        <div style="box-sizing: border-box; font-size: 0; text-align: center; ">
                            <div style="display: inline-block; font-size: 12px; font-family: Helvetica; color: #333333; line-height: 1.2; pointer-events: none; white-space: normal; word-wrap: normal; ">
                                属性3
                            </div>
                        </div>
                    </div>
                </foreignObject>
                <text x="620" y="171" fill="#333333" font-family="Helvetica" font-size="12px" text-anchor="middle">
                    属性3
                </text>
            </switch>
        </g>
        <g transform="translate(-0.5 -0.5)">
            <switch>
                <foreignObject style="overflow: visible; text-align: left;" pointer-events="none" width="100%" height="100%" requiredFeatures="http://www.w3.org/TR/SVG11/feature#Extensibility">
                    <div xmlns="http://www.w3.org/1999/xhtml" style="display: flex; align-items: unsafe center; justify-content: unsafe center; width: 38px; height: 1px; padding-top: 137px; margin-left: 601px;">
                        <div style="box-sizing: border-box; font-size: 0; text-align: center; ">
                            <div style="display: inline-block; font-size: 12px; font-family: Helvetica; color: #333333; line-height: 1.2; pointer-events: none; white-space: normal; word-wrap: normal; ">
                                属性2
                            </div>
                        </div>
                    </div>
                </foreignObject>
                <text x="620" y="141" fill="#333333" font-family="Helvetica" font-size="12px" text-anchor="middle">
                    属性2
                </text>
            </switch>
        </g>
        <rect x="670" y="207" width="140" height="20" fill="#ffffff" stroke="#cccccc" pointer-events="none"/>
        <g fill="#000000" font-family="Helvetica" pointer-events="none" font-size="14px">
            <text x="684.5" y="222.5">
                武器1
            </text>
        </g>
        <rect x="789" y="207" width="21" height="20" fill="none" stroke="#cccccc" pointer-events="none"/>
        <path d="M 794.5 214.5 L 804.5 214.5 L 799.5 219.5 Z" fill="#cccccc" stroke="none" pointer-events="none"/>
        <rect x="670" y="237" width="140" height="60" fill="#000000" stroke="#000000" pointer-events="none" transform="translate(2,3)" opacity="0.25"/>
        <rect x="670" y="237" width="140" height="60" fill="#ffffff" stroke="#eeeeee" pointer-events="none"/>
        <g fill="#FF4081" font-family="Helvetica" pointer-events="none" font-size="14px">
            <text x="684.5" y="252.5">
                State 1
            </text>
        </g>
        <rect x="670" y="258" width="123.53" height="20" fill="#eeeeee" stroke="none" pointer-events="none"/>
        <g fill="#000000" font-family="Helvetica" pointer-events="none" font-size="14px">
            <text x="684.5" y="273.5">
                State 2
            </text>
        </g>
        <g fill="#000000" font-family="Helvetica" pointer-events="none" font-size="14px">
            <text x="684.5" y="292.5">
                State 3
            </text>
        </g>
        <ellipse cx="785.06" cy="248" rx="8" ry="8" fill="none" stroke="none" pointer-events="none" transform="translate(2,3)" opacity="0.25"/>
        <path d="M 782.77 245.71 L 787.34 250.29" fill="none" stroke="#737373" stroke-width="2" stroke-miterlimit="10" pointer-events="none"/>
        <path d="M 787.34 245.71 L 782.77 250.29" fill="none" stroke="#737373" stroke-width="2" stroke-miterlimit="10" pointer-events="none"/>
        <ellipse cx="802.5" cy="248.5" rx="7.5" ry="7.5" fill="none" stroke="none" pointer-events="none" transform="translate(2,3)" opacity="0.25"/>
        <path d="M 799.5 248.5 L 805.5 248.5" fill="none" stroke="#737373" stroke-width="2" stroke-miterlimit="10" pointer-events="none"/>
        <path d="M 802.5 245.5 L 802.5 251.5" fill="none" stroke="#737373" stroke-width="2" stroke-miterlimit="10" pointer-events="none"/>
        <rect x="670" y="157" width="110" height="20" fill="none" stroke="#000000" pointer-events="none"/>
        <g transform="translate(-0.5 -0.5)">
            <switch>
                <foreignObject style="overflow: visible; text-align: left;" pointer-events="none" width="100%" height="100%" requiredFeatures="http://www.w3.org/TR/SVG11/feature#Extensibility">
                    <div xmlns="http://www.w3.org/1999/xhtml" style="display: flex; align-items: unsafe center; justify-content: unsafe center; width: 108px; height: 1px; padding-top: 167px; margin-left: 671px;">
                        <div style="box-sizing: border-box; font-size: 0; text-align: center; ">
                            <div style="display: inline-block; font-size: 12px; font-family: Helvetica; color: #000000; line-height: 1.2; pointer-events: none; white-space: normal; word-wrap: normal; ">
                                50
                            </div>
                        </div>
                    </div>
                </foreignObject>
                <text x="725" y="171" fill="#000000" font-family="Helvetica" font-size="12px" text-anchor="middle">
                    50
                </text>
            </switch>
        </g>
        <path d="M 670 132.6 C 670 131.72 670.72 131 671.6 131 L 684.4 131 C 685.28 131 686 131.72 686 132.6 L 686 145.4 C 686 146.28 685.28 147 684.4 147 L 671.6 147 C 670.72 147 670 146.28 670 145.4 Z M 671.66 141.14 L 675.82 144.92 L 684.43 135 L 683.04 133.77 L 675.66 142.33 L 672.9 139.78 Z" fill="#676767" stroke="none" pointer-events="none"/>
        <path d="M 670 108 L 790 108" fill="#2150ef" stroke="#bbbbbb" stroke-width="2" stroke-miterlimit="10" pointer-events="none"/>
        <path d="M 670 108 L 749 108" fill="#2150ef" stroke="#001dbc" stroke-width="2" stroke-miterlimit="10" pointer-events="none"/>
        <ellipse cx="749" cy="108" rx="2.5" ry="2.5" fill="#2150ef" stroke="#001dbc" stroke-width="2" pointer-events="none"/>
        <rect x="590" y="437" width="230" height="260" fill="#000000" stroke="#000000" pointer-events="none" transform="translate(2,3)" opacity="0.25"/>
        <rect x="590" y="437" width="230" height="260" fill="#bdbdbd" stroke="#eeeeee" pointer-events="none"/>
        <rect x="590" y="437" width="230" height="30" fill="#ffffff" stroke="none" pointer-events="none"/>
        <g fill="#333333" font-family="Helvetica" pointer-events="none" text-anchor="middle" font-size="12px">
            <text x="704.5" y="456.5">
                父类属性面版
            </text>
        </g>
        <rect x="590" y="614" width="230" height="83" fill="#ffffff" stroke="none" pointer-events="none"/>
        <g transform="translate(-0.5 -0.5)">
            <switch>
                <foreignObject style="overflow: visible; text-align: left;" pointer-events="none" width="100%" height="100%" requiredFeatures="http://www.w3.org/TR/SVG11/feature#Extensibility">
                    <div xmlns="http://www.w3.org/1999/xhtml" style="display: flex; align-items: unsafe center; justify-content: unsafe center; width: 38px; height: 1px; padding-top: 487px; margin-left: 611px;">
                        <div style="box-sizing: border-box; font-size: 0; text-align: center; ">
                            <div style="display: inline-block; font-size: 12px; font-family: Helvetica; color: #333333; line-height: 1.2; pointer-events: none; white-space: normal; word-wrap: normal; ">
                                属性1
                            </div>
                        </div>
                    </div>
                </foreignObject>
                <text x="630" y="491" fill="#333333" font-family="Helvetica" font-size="12px" text-anchor="middle">
                    属性1
                </text>
            </switch>
        </g>
        <g transform="translate(-0.5 -0.5)">
            <switch>
                <foreignObject style="overflow: visible; text-align: left;" pointer-events="none" width="100%" height="100%" requiredFeatures="http://www.w3.org/TR/SVG11/feature#Extensibility">
                    <div xmlns="http://www.w3.org/1999/xhtml" style="display: flex; align-items: unsafe center; justify-content: unsafe center; width: 38px; height: 1px; padding-top: 547px; margin-left: 611px;">
                        <div style="box-sizing: border-box; font-size: 0; text-align: center; ">
                            <div style="display: inline-block; font-size: 12px; font-family: Helvetica; color: #333333; line-height: 1.2; pointer-events: none; white-space: normal; word-wrap: normal; ">
                                属性3
                            </div>
                        </div>
                    </div>
                </foreignObject>
                <text x="630" y="551" fill="#333333" font-family="Helvetica" font-size="12px" text-anchor="middle">
                    属性3
                </text>
            </switch>
        </g>
        <path d="M 670 512.6 C 670 511.72 670.72 511 671.6 511 L 684.4 511 C 685.28 511 686 511.72 686 512.6 L 686 525.4 C 686 526.28 685.28 527 684.4 527 L 671.6 527 C 670.72 527 670 526.28 670 525.4 Z M 671.66 521.14 L 675.82 524.92 L 684.43 515 L 683.04 513.77 L 675.66 522.33 L 672.9 519.78 Z" fill="#676767" stroke="none" pointer-events="none"/>
        <rect x="670" y="537" width="110" height="20" fill="none" stroke="#000000" pointer-events="none"/>
        <g transform="translate(-0.5 -0.5)">
            <switch>
                <foreignObject style="overflow: visible; text-align: left;" pointer-events="none" width="100%" height="100%" requiredFeatures="http://www.w3.org/TR/SVG11/feature#Extensibility">
                    <div xmlns="http://www.w3.org/1999/xhtml" style="display: flex; align-items: unsafe center; justify-content: unsafe center; width: 108px; height: 1px; padding-top: 547px; margin-left: 671px;">
                        <div style="box-sizing: border-box; font-size: 0; text-align: center; ">
                            <div style="display: inline-block; font-size: 12px; font-family: Helvetica; color: #000000; line-height: 1.2; pointer-events: none; white-space: normal; word-wrap: normal; ">
                                50
                            </div>
                        </div>
                    </div>
                </foreignObject>
                <text x="725" y="551" fill="#000000" font-family="Helvetica" font-size="12px" text-anchor="middle">
                    50
                </text>
            </switch>
        </g>
        <g transform="translate(-0.5 -0.5)">
            <switch>
                <foreignObject style="overflow: visible; text-align: left;" pointer-events="none" width="100%" height="100%" requiredFeatures="http://www.w3.org/TR/SVG11/feature#Extensibility">
                    <div xmlns="http://www.w3.org/1999/xhtml" style="display: flex; align-items: unsafe center; justify-content: unsafe center; width: 38px; height: 1px; padding-top: 517px; margin-left: 611px;">
                        <div style="box-sizing: border-box; font-size: 0; text-align: center; ">
                            <div style="display: inline-block; font-size: 12px; font-family: Helvetica; color: #333333; line-height: 1.2; pointer-events: none; white-space: normal; word-wrap: normal; ">
                                属性2
                            </div>
                        </div>
                    </div>
                </foreignObject>
                <text x="630" y="521" fill="#333333" font-family="Helvetica" font-size="12px" text-anchor="middle">
                    属性2
                </text>
            </switch>
        </g>
        <path d="M 670 488 L 790 488" fill="#2150ef" stroke="#bbbbbb" stroke-width="2" stroke-miterlimit="10" pointer-events="none"/>
        <path d="M 670 488 L 749 488" fill="#2150ef" stroke="#001dbc" stroke-width="2" stroke-miterlimit="10" pointer-events="none"/>
        <ellipse cx="749" cy="488" rx="2.5" ry="2.5" fill="#2150ef" stroke="#001dbc" stroke-width="2" pointer-events="none"/>
        <g transform="translate(-0.5 -0.5)">
            <switch>
                <foreignObject style="overflow: visible; text-align: left;" pointer-events="none" width="100%" height="100%" requiredFeatures="http://www.w3.org/TR/SVG11/feature#Extensibility">
                    <div xmlns="http://www.w3.org/1999/xhtml" style="display: flex; align-items: unsafe center; justify-content: unsafe center; width: 58px; height: 1px; padding-top: 217px; margin-left: 601px;">
                        <div style="box-sizing: border-box; font-size: 0; text-align: center; ">
                            <div style="display: inline-block; font-size: 12px; font-family: Helvetica; color: #333333; line-height: 1.2; pointer-events: none; white-space: normal; word-wrap: normal; ">
                                引用对象
                            </div>
                        </div>
                    </div>
                </foreignObject>
                <text x="630" y="221" fill="#333333" font-family="Helvetica" font-size="12px" text-anchor="middle">
                    引用对象
                </text>
            </switch>
        </g>
        <g transform="translate(-0.5 -0.5)">
            <switch>
                <foreignObject style="overflow: visible; text-align: left;" pointer-events="none" width="100%" height="100%" requiredFeatures="http://www.w3.org/TR/SVG11/feature#Extensibility">
                    <div xmlns="http://www.w3.org/1999/xhtml" style="display: flex; align-items: unsafe center; justify-content: unsafe center; width: 58px; height: 1px; padding-top: 247px; margin-left: 601px;">
                        <div style="box-sizing: border-box; font-size: 0; text-align: center; ">
                            <div style="display: inline-block; font-size: 12px; font-family: Helvetica; color: #333333; line-height: 1.2; pointer-events: none; white-space: normal; word-wrap: normal; ">
                                引用列表
                            </div>
                        </div>
                    </div>
                </foreignObject>
                <text x="630" y="251" fill="#333333" font-family="Helvetica" font-size="12px" text-anchor="middle">
                    引用列表
                </text>
            </switch>
        </g>
        <ellipse cx="785.06" cy="268" rx="8" ry="8" fill="none" stroke="none" pointer-events="none" transform="translate(2,3)" opacity="0.25"/>
        <path d="M 782.77 265.71 L 787.34 270.29" fill="none" stroke="#737373" stroke-width="2" stroke-miterlimit="10" pointer-events="none"/>
        <path d="M 787.34 265.71 L 782.77 270.29" fill="none" stroke="#737373" stroke-width="2" stroke-miterlimit="10" pointer-events="none"/>
        <ellipse cx="785.06" cy="287" rx="8" ry="8" fill="none" stroke="none" pointer-events="none" transform="translate(2,3)" opacity="0.25"/>
        <path d="M 782.77 284.71 L 787.34 289.29" fill="none" stroke="#737373" stroke-width="2" stroke-miterlimit="10" pointer-events="none"/>
        <path d="M 787.34 284.71 L 782.77 289.29" fill="none" stroke="#737373" stroke-width="2" stroke-miterlimit="10" pointer-events="none"/>
        <ellipse cx="802.5" cy="268" rx="7.5" ry="7.5" fill="none" stroke="none" pointer-events="none" transform="translate(2,3)" opacity="0.25"/>
        <path d="M 799.5 268 L 805.5 268" fill="none" stroke="#737373" stroke-width="2" stroke-miterlimit="10" pointer-events="none"/>
        <path d="M 802.5 265 L 802.5 271" fill="none" stroke="#737373" stroke-width="2" stroke-miterlimit="10" pointer-events="none"/>
        <ellipse cx="802.5" cy="287.5" rx="7.5" ry="7.5" fill="none" stroke="none" pointer-events="none" transform="translate(2,3)" opacity="0.25"/>
        <path d="M 799.5 287.5 L 805.5 287.5" fill="none" stroke="#737373" stroke-width="2" stroke-miterlimit="10" pointer-events="none"/>
        <path d="M 802.5 284.5 L 802.5 290.5" fill="none" stroke="#737373" stroke-width="2" stroke-miterlimit="10" pointer-events="none"/>
        <rect x="720" y="17" width="30" height="30" rx="3" ry="3" fill="none" stroke="#666666" stroke-width="2" pointer-events="none"/>
        <rect x="720" y="17" width="0" height="0" fill="none" stroke="#666666" stroke-width="2" pointer-events="none"/>
        <path d="M 731 40 L 731 36 C 732.01 34.6 734.21 33.51 737 33 L 741 33 C 743.79 33.51 745.99 34.6 747 36 L 747 40 Z" fill="#737373" stroke="none" pointer-events="none"/>
        <ellipse cx="739" cy="28" rx="4" ry="4" fill="#737373" stroke="none" pointer-events="none"/>
        <path d="M 723 40 L 723 36 C 724.01 34.6 726.21 33.51 729 33 L 733 33 C 735.79 33.51 737.99 34.6 739 36 L 739 40 Z" fill="#737373" stroke="none" pointer-events="none"/>
        <ellipse cx="731" cy="28" rx="4" ry="4" fill="#737373" stroke="none" pointer-events="none"/>
        <rect x="690" y="17" width="30" height="30" rx="3" ry="3" fill="none" stroke="#666666" stroke-width="2" pointer-events="none"/>
        <rect x="690" y="17" width="0" height="0" fill="none" stroke="#666666" stroke-width="2" pointer-events="none"/>
        <path d="M 708.75 24.92 L 712.08 28.25 L 699.58 40.75 L 695 42 L 696.25 37.42 Z" fill="#737373" stroke="none" pointer-events="none"/>
        <path d="M 709.17 24.5 L 711.67 22 L 715 25.33 L 712.5 27.83 Z" fill="#737373" stroke="none" pointer-events="none"/>
        <rect x="750" y="17" width="30" height="30" rx="3" ry="3" fill="none" stroke="#666666" stroke-width="2" pointer-events="none"/>
        <rect x="750" y="17" width="0" height="0" fill="none" stroke="#666666" stroke-width="2" pointer-events="none"/>
        <path d="M 765 22 C 770.52 22 775 26.48 775 32 C 775 37.52 770.52 42 765 42 C 759.48 42 755 37.52 755 32 C 755 26.48 759.48 22 765 22 Z M 770.83 26.17 L 762.92 29.92 L 759.17 37.83 L 767.08 34.08 L 770.83 26.17 Z M 765 30.75 C 765.69 30.75 766.25 31.31 766.25 32 C 766.25 32.69 765.69 33.25 765 33.25 C 764.31 33.25 763.75 32.69 763.75 32 C 763.75 31.31 764.31 30.75 765 30.75 Z" fill="#737373" stroke="none" pointer-events="none"/>
        <rect x="780" y="17" width="30" height="30" rx="3" ry="3" fill="none" stroke="#666666" stroke-width="2" pointer-events="none"/>
        <rect x="780" y="17" width="0" height="0" fill="none" stroke="#666666" stroke-width="2" pointer-events="none"/>
        <path d="M 798.75 24.92 L 802.08 28.25 L 789.58 40.75 L 785 42 L 786.25 37.42 Z" fill="#737373" stroke="none" pointer-events="none"/>
        <path d="M 799.17 24.5 L 801.67 22 L 805 25.33 L 802.5 27.83 Z" fill="#737373" stroke="none" pointer-events="none"/>
        <path d="M 70 139 L 70 81 Q 70 71 80 71 L 260 71 Q 270 71 270 81 L 270 197 Q 270 207 260 207 L 200 207 Q 190 207 184.45 215.32 L 170 237 L 170 217 Q 170 207 160 207 L 80 207 Q 70 207 70 197 Z" fill="none" stroke="#bec4a1" stroke-miterlimit="10" pointer-events="none"/>
        <g transform="translate(-0.5 -0.5)">
            <switch>
                <foreignObject style="overflow: visible; text-align: left;" pointer-events="none" width="100%" height="100%" requiredFeatures="http://www.w3.org/TR/SVG11/feature#Extensibility">
                    <div xmlns="http://www.w3.org/1999/xhtml" style="display: flex; align-items: unsafe center; justify-content: unsafe center; width: 198px; height: 1px; padding-top: 139px; margin-left: 71px;">
                        <div style="box-sizing: border-box; font-size: 0; text-align: center; ">
                            <div style="display: inline-block; font-size: 18px; font-family: Helvetica; color: #FFFFFF; line-height: 1.2; pointer-events: none; white-space: normal; word-wrap: normal; ">
                                <font color="#212121">
                                    主界面
                                    <br/>
                                    实时运行游戏
                                    <br/>
                                    当前场景
                                    <br/>
                                    （也可以在任意帧暂停）
                                    <br/>
                                </font>
                            </div>
                        </div>
                    </div>
                </foreignObject>
                <text x="170" y="144" fill="#FFFFFF" font-family="Helvetica" font-size="18px" text-anchor="middle">
                    主界面实时运行游戏当前场景（也可以在任意帧暂停）...
                </text>
            </switch>
        </g>
        <path d="M 480 117 L 480 137 L 415 137 L 415 13.37" fill="none" stroke="#000000" stroke-miterlimit="10" pointer-events="none"/>
        <path d="M 415 8.12 L 418.5 15.12 L 415 13.37 L 411.5 15.12 Z" fill="#000000" stroke="#000000" stroke-miterlimit="10" pointer-events="none"/>
        <path d="M 435 62 L 435 -8 Q 435 -18 445 -18 L 515 -18 Q 525 -18 525 -8 L 525 132 Q 525 142 522.8 151.76 L 520.5 162 L 512.59 150.29 Q 507 142 497 142 L 445 142 Q 435 142 435 132 Z" fill="none" stroke="#bec4a1" stroke-miterlimit="10" transform="rotate(270,480,72)" pointer-events="none"/>
        <g transform="translate(-0.5 -0.5)">
            <switch>
                <foreignObject style="overflow: visible; text-align: left;" pointer-events="none" width="100%" height="100%" requiredFeatures="http://www.w3.org/TR/SVG11/feature#Extensibility">
                    <div xmlns="http://www.w3.org/1999/xhtml" style="display: flex; align-items: unsafe center; justify-content: unsafe center; width: 158px; height: 1px; padding-top: 72px; margin-left: 391px;">
                        <div style="box-sizing: border-box; font-size: 0; text-align: center; ">
                            <div style="display: inline-block; font-size: 18px; font-family: Helvetica; color: #FFFFFF; line-height: 1.2; pointer-events: none; white-space: normal; word-wrap: normal; ">
                                <font color="#212121">
                                    主菜单栏
                                    <br/>
                                    属性编辑、数据库、地图编辑、事件编辑等编辑器
                                    <br/>
                                </font>
                            </div>
                        </div>
                    </div>
                </foreignObject>
                <text x="470" y="77" fill="#FFFFFF" font-family="Helvetica" font-size="18px" text-anchor="middle">
                    主菜单栏属性编辑、数据库、地图编辑、事件编辑等编辑器...
                </text>
            </switch>
        </g>
        <path d="M 445 182 L 445 112 Q 445 102 455 102 L 505 102 Q 515 102 515 112 L 515 252 Q 515 262 513.28 271.85 L 511.5 282 L 505.65 270.85 Q 501 262 491 262 L 455 262 Q 445 262 445 252 Z" fill="none" stroke="#bec4a1" stroke-miterlimit="10" transform="rotate(270,480,192)" pointer-events="none"/>
        <g transform="translate(-0.5 -0.5)">
            <switch>
                <foreignObject style="overflow: visible; text-align: left;" pointer-events="none" width="100%" height="100%" requiredFeatures="http://www.w3.org/TR/SVG11/feature#Extensibility">
                    <div xmlns="http://www.w3.org/1999/xhtml" style="display: flex; align-items: unsafe center; justify-content: unsafe center; width: 158px; height: 1px; padding-top: 192px; margin-left: 391px;">
                        <div style="box-sizing: border-box; font-size: 0; text-align: center; ">
                            <div style="display: inline-block; font-size: 18px; font-family: Helvetica; color: #FFFFFF; line-height: 1.2; pointer-events: none; white-space: normal; word-wrap: normal; ">
                                <font color="#212121">
                                    实时属性编辑
                                    <br/>
                                </font>
                            </div>
                        </div>
                    </div>
                </foreignObject>
                <text x="470" y="197" fill="#FFFFFF" font-family="Helvetica" font-size="18px" text-anchor="middle">
                    实时属性编辑
                </text>
            </switch>
        </g>
        <path d="M 435 472 L 435 402 Q 435 392 445 392 L 515 392 Q 525 392 525 402 L 525 542 Q 525 552 522.8 561.76 L 520.5 572 L 512.59 560.29 Q 507 552 497 552 L 445 552 Q 435 552 435 542 Z" fill="none" stroke="#bec4a1" stroke-miterlimit="10" transform="rotate(270,480,482)" pointer-events="none"/>
        <g transform="translate(-0.5 -0.5)">
            <switch>
                <foreignObject style="overflow: visible; text-align: left;" pointer-events="none" width="100%" height="100%" requiredFeatures="http://www.w3.org/TR/SVG11/feature#Extensibility">
                    <div xmlns="http://www.w3.org/1999/xhtml" style="display: flex; align-items: unsafe center; justify-content: unsafe center; width: 158px; height: 1px; padding-top: 482px; margin-left: 391px;">
                        <div style="box-sizing: border-box; font-size: 0; text-align: center; ">
                            <div style="display: inline-block; font-size: 18px; font-family: Helvetica; color: #FFFFFF; line-height: 1.2; pointer-events: none; white-space: normal; word-wrap: normal; ">
                                <font color="#212121">
                                    继承结构的对象
                                    <br/>
                                    可以同时编辑父类属性
                                    <br/>
                                </font>
                            </div>
                        </div>
                    </div>
                </foreignObject>
                <text x="470" y="487" fill="#FFFFFF" font-family="Helvetica" font-size="18px" text-anchor="middle">
                    继承结构的对象可以同时编辑父类属性...
                </text>
            </switch>
        </g>
        <ellipse cx="275" cy="302.5" rx="7.5" ry="7.5" fill="none" stroke="#bec4a1" pointer-events="none"/>
        <path d="M 275 310 L 275 335 M 275 315 L 260 315 M 275 315 L 290 315 M 275 335 L 260 355 M 275 335 L 290 355" fill="none" stroke="#bec4a1" stroke-miterlimit="10" pointer-events="none"/>
        <g transform="translate(-0.5 -0.5)">
            <switch>
                <foreignObject style="overflow: visible; text-align: left;" pointer-events="none" width="100%" height="100%" requiredFeatures="http://www.w3.org/TR/SVG11/feature#Extensibility">
                    <div xmlns="http://www.w3.org/1999/xhtml" style="display: flex; align-items: unsafe flex-start; justify-content: unsafe center; width: 1px; height: 1px; padding-top: 362px; margin-left: 275px;">
                        <div style="box-sizing: border-box; font-size: 0; text-align: center; ">
                            <div style="display: inline-block; font-size: 18px; font-family: Helvetica; color: #FFFFFF; line-height: 1.2; pointer-events: none; white-space: nowrap; ">
                                <font color="#191919">
                                    精灵
                                </font>
                            </div>
                        </div>
                    </div>
                </foreignObject>
                <text x="275" y="380" fill="#FFFFFF" font-family="Helvetica" font-size="18px" text-anchor="middle">
                    精灵
                </text>
            </switch>
        </g>
        <rect x="250" y="285" width="50" height="72" fill="none" stroke="#bec4a1" stroke-dasharray="3 3" pointer-events="none"/>
        <path d="M 160 452 L 160 407 Q 160 397 170 397 L 320 397 Q 330 397 330 407 L 330 497 Q 330 507 320 507 L 275 507 Q 265 507 259.45 515.32 L 245 537 L 245 517 Q 245 507 235 507 L 170 507 Q 160 507 160 497 Z" fill="none" stroke="#bec4a1" stroke-miterlimit="10" transform="rotate(180,245,467)" pointer-events="none"/>
        <g transform="translate(-0.5 -0.5)">
            <switch>
                <foreignObject style="overflow: visible; text-align: left;" pointer-events="none" width="100%" height="100%" requiredFeatures="http://www.w3.org/TR/SVG11/feature#Extensibility">
                    <div xmlns="http://www.w3.org/1999/xhtml" style="display: flex; align-items: unsafe center; justify-content: unsafe center; width: 168px; height: 1px; padding-top: 482px; margin-left: 161px;">
                        <div style="box-sizing: border-box; font-size: 0; text-align: center; ">
                            <div style="display: inline-block; font-size: 18px; font-family: Helvetica; color: #FFFFFF; line-height: 1.2; pointer-events: none; white-space: normal; word-wrap: normal; ">
                                <font color="#121212">
                                    可以用对象检查器选中一个精灵或一个可渲染的对象
                                </font>
                            </div>
                        </div>
                    </div>
                </foreignObject>
                <text x="245" y="487" fill="#FFFFFF" font-family="Helvetica" font-size="18px" text-anchor="middle">
                    可以用对象检查器选中一个精灵或一个可渲染的对象
                </text>
            </switch>
        </g>
    </g>
    <switch>
        <g requiredFeatures="http://www.w3.org/TR/SVG11/feature#Extensibility"/>
        <a transform="translate(0,-5)" xlink:href="https://www.diagrams.net/doc/faq/svg-export-text-problems" target="_blank">
            <text text-anchor="middle" font-size="10px" x="50%" y="100%">
                Viewer does not support full SVG 1.1
            </text>
        </a>
    </switch>
</svg>