# Original EVEngine test asset; CC0-1.0
o house
s off
vn 0.000000 0.000000 -1.000000
v -0.400000 0.060000 -0.400000
v 0.400000 0.060000 -0.400000
v 0.400000 -0.500000 -0.400000
v -0.400000 -0.500000 -0.400000
f 1//1 2//1 3//1
f 1//1 3//1 4//1
vn 0.000000 0.000000 1.000000
v -0.400000 -0.500000 0.400000
v 0.400000 -0.500000 0.400000
v 0.400000 0.060000 0.400000
v -0.400000 0.060000 0.400000
f 5//2 6//2 7//2
f 5//2 7//2 8//2
vn -1.000000 0.000000 0.000000
v -0.400000 -0.500000 -0.400000
v -0.400000 -0.500000 0.400000
v -0.400000 0.060000 0.400000
v -0.400000 0.060000 -0.400000
f 9//3 10//3 11//3
f 9//3 11//3 12//3
vn 1.000000 0.000000 -0.000000
v 0.400000 0.060000 -0.400000
v 0.400000 0.060000 0.400000
v 0.400000 -0.500000 0.400000
v 0.400000 -0.500000 -0.400000
f 13//4 14//4 15//4
f 13//4 15//4 16//4
vn -0.000000 1.000000 0.000000
v -0.400000 0.060000 0.400000
v 0.400000 0.060000 0.400000
v 0.400000 0.060000 -0.400000
v -0.400000 0.060000 -0.400000
f 17//5 18//5 19//5
f 17//5 19//5 20//5
vn 0.000000 -1.000000 0.000000
v -0.400000 -0.500000 -0.400000
v 0.400000 -0.500000 -0.400000
v 0.400000 -0.500000 0.400000
v -0.400000 -0.500000 0.400000
f 21//6 22//6 23//6
f 21//6 23//6 24//6
vn 0.000000 0.000000 -1.000000
v -0.480000 0.060000 -0.480000
v 0.000000 0.500000 -0.480000
v 0.480000 0.060000 -0.480000
f 25//7 26//7 27//7
vn 0.000000 0.000000 1.000000
v 0.480000 0.060000 0.480000
v 0.000000 0.500000 0.480000
v -0.480000 0.060000 0.480000
f 28//8 29//8 30//8
vn -0.675725 0.737154 0.000000
v -0.480000 0.060000 0.480000
v 0.000000 0.500000 0.480000
v 0.000000 0.500000 -0.480000
v -0.480000 0.060000 -0.480000
f 31//9 32//9 33//9
f 31//9 33//9 34//9
vn 0.675725 0.737154 0.000000
v 0.480000 0.060000 -0.480000
v 0.000000 0.500000 -0.480000
v 0.000000 0.500000 0.480000
v 0.480000 0.060000 0.480000
f 35//10 36//10 37//10
f 35//10 37//10 38//10
vn 0.000000 -1.000000 0.000000
v -0.480000 0.060000 -0.480000
v 0.480000 0.060000 -0.480000
v 0.480000 0.060000 0.480000
v -0.480000 0.060000 0.480000
f 39//11 40//11 41//11
f 39//11 41//11 42//11
vn 0.000000 0.000000 -1.000000
v -0.220000 -0.070000 0.401000
v 0.220000 -0.070000 0.401000
v 0.220000 -0.500000 0.401000
v -0.220000 -0.500000 0.401000
f 43//12 44//12 45//12
f 43//12 45//12 46//12
vn 0.000000 0.000000 1.000000
v -0.220000 -0.500000 0.430000
v 0.220000 -0.500000 0.430000
v 0.220000 -0.070000 0.430000
v -0.220000 -0.070000 0.430000
f 47//13 48//13 49//13
f 47//13 49//13 50//13
vn -1.000000 0.000000 0.000000
v -0.220000 -0.500000 0.401000
v -0.220000 -0.500000 0.430000
v -0.220000 -0.070000 0.430000
v -0.220000 -0.070000 0.401000
f 51//14 52//14 53//14
f 51//14 53//14 54//14
vn 1.000000 0.000000 -0.000000
v 0.220000 -0.070000 0.401000
v 0.220000 -0.070000 0.430000
v 0.220000 -0.500000 0.430000
v 0.220000 -0.500000 0.401000
f 55//15 56//15 57//15
f 55//15 57//15 58//15
vn -0.000000 1.000000 0.000000
v -0.220000 -0.070000 0.430000
v 0.220000 -0.070000 0.430000
v 0.220000 -0.070000 0.401000
v -0.220000 -0.070000 0.401000
f 59//16 60//16 61//16
f 59//16 61//16 62//16
vn 0.000000 -1.000000 0.000000
v -0.220000 -0.500000 0.401000
v 0.220000 -0.500000 0.401000
v 0.220000 -0.500000 0.430000
v -0.220000 -0.500000 0.430000
f 63//17 64//17 65//17
f 63//17 65//17 66//17
vn 0.000000 0.000000 -1.000000
v -0.015000 -0.070000 0.430000
v 0.015000 -0.070000 0.430000
v 0.015000 -0.500000 0.430000
v -0.015000 -0.500000 0.430000
f 67//18 68//18 69//18
f 67//18 69//18 70//18
vn 0.000000 0.000000 1.000000
v -0.015000 -0.500000 0.450000
v 0.015000 -0.500000 0.450000
v 0.015000 -0.070000 0.450000
v -0.015000 -0.070000 0.450000
f 71//19 72//19 73//19
f 71//19 73//19 74//19
vn -1.000000 0.000000 0.000000
v -0.015000 -0.500000 0.430000
v -0.015000 -0.500000 0.450000
v -0.015000 -0.070000 0.450000
v -0.015000 -0.070000 0.430000
f 75//20 76//20 77//20
f 75//20 77//20 78//20
vn 1.000000 0.000000 -0.000000
v 0.015000 -0.070000 0.430000
v 0.015000 -0.070000 0.450000
v 0.015000 -0.500000 0.450000
v 0.015000 -0.500000 0.430000
f 79//21 80//21 81//21
f 79//21 81//21 82//21
vn -0.000000 1.000000 0.000000
v -0.015000 -0.070000 0.450000
v 0.015000 -0.070000 0.450000
v 0.015000 -0.070000 0.430000
v -0.015000 -0.070000 0.430000
f 83//22 84//22 85//22
f 83//22 85//22 86//22
vn 0.000000 -1.000000 0.000000
v -0.015000 -0.500000 0.430000
v 0.015000 -0.500000 0.430000
v 0.015000 -0.500000 0.450000
v -0.015000 -0.500000 0.450000
f 87//23 88//23 89//23
f 87//23 89//23 90//23
vn 0.000000 0.000000 -1.000000
v -0.270000 -0.030000 0.400000
v 0.270000 -0.030000 0.400000
v 0.270000 -0.070000 0.400000
v -0.270000 -0.070000 0.400000
f 91//24 92//24 93//24
f 91//24 93//24 94//24
vn 0.000000 0.000000 1.000000
v -0.270000 -0.070000 0.460000
v 0.270000 -0.070000 0.460000
v 0.270000 -0.030000 0.460000
v -0.270000 -0.030000 0.460000
f 95//25 96//25 97//25
f 95//25 97//25 98//25
vn -1.000000 0.000000 0.000000
v -0.270000 -0.070000 0.400000
v -0.270000 -0.070000 0.460000
v -0.270000 -0.030000 0.460000
v -0.270000 -0.030000 0.400000
f 99//26 100//26 101//26
f 99//26 101//26 102//26
vn 1.000000 0.000000 -0.000000
v 0.270000 -0.030000 0.400000
v 0.270000 -0.030000 0.460000
v 0.270000 -0.070000 0.460000
v 0.270000 -0.070000 0.400000
f 103//27 104//27 105//27
f 103//27 105//27 106//27
vn -0.000000 1.000000 0.000000
v -0.270000 -0.030000 0.460000
v 0.270000 -0.030000 0.460000
v 0.270000 -0.030000 0.400000
v -0.270000 -0.030000 0.400000
f 107//28 108//28 109//28
f 107//28 109//28 110//28
vn 0.000000 -1.000000 0.000000
v -0.270000 -0.070000 0.400000
v 0.270000 -0.070000 0.400000
v 0.270000 -0.070000 0.460000
v -0.270000 -0.070000 0.460000
f 111//29 112//29 113//29
f 111//29 113//29 114//29
