# Original EVEngine test asset; CC0-1.0
o house
s off
vn 0.000000 0.000000 -1.000000
v -0.400000 0.100000 -0.400000
v 0.400000 0.100000 -0.400000
v 0.400000 -0.500000 -0.400000
v -0.400000 -0.500000 -0.400000
f 1//1 2//1 3//1
f 1//1 3//1 4//1
vn 0.000000 0.000000 1.000000
v -0.400000 -0.500000 0.400000
v 0.400000 -0.500000 0.400000
v 0.400000 0.100000 0.400000
v -0.400000 0.100000 0.400000
f 5//2 6//2 7//2
f 5//2 7//2 8//2
vn -1.000000 0.000000 0.000000
v -0.400000 -0.500000 -0.400000
v -0.400000 -0.500000 0.400000
v -0.400000 0.100000 0.400000
v -0.400000 0.100000 -0.400000
f 9//3 10//3 11//3
f 9//3 11//3 12//3
vn 1.000000 0.000000 -0.000000
v 0.400000 0.100000 -0.400000
v 0.400000 0.100000 0.400000
v 0.400000 -0.500000 0.400000
v 0.400000 -0.500000 -0.400000
f 13//4 14//4 15//4
f 13//4 15//4 16//4
vn -0.000000 1.000000 0.000000
v -0.400000 0.100000 0.400000
v 0.400000 0.100000 0.400000
v 0.400000 0.100000 -0.400000
v -0.400000 0.100000 -0.400000
f 17//5 18//5 19//5
f 17//5 19//5 20//5
vn 0.000000 -1.000000 0.000000
v -0.400000 -0.500000 -0.400000
v 0.400000 -0.500000 -0.400000
v 0.400000 -0.500000 0.400000
v -0.400000 -0.500000 0.400000
f 21//6 22//6 23//6
f 21//6 23//6 24//6
vn -0.640184 0.768221 0.000000
v -0.480000 0.100000 -0.480000
v -0.480000 0.100000 0.480000
v 0.000000 0.500000 0.000000
f 25//7 26//7 27//7
vn -0.000000 0.768221 0.640184
v -0.480000 0.100000 0.480000
v 0.480000 0.100000 0.480000
v 0.000000 0.500000 0.000000
f 28//8 29//8 30//8
vn 0.640184 0.768221 0.000000
v 0.480000 0.100000 0.480000
v 0.480000 0.100000 -0.480000
v 0.000000 0.500000 0.000000
f 31//9 32//9 33//9
vn 0.000000 0.768221 -0.640184
v 0.480000 0.100000 -0.480000
v -0.480000 0.100000 -0.480000
v 0.000000 0.500000 0.000000
f 34//10 35//10 36//10
vn 0.000000 -1.000000 0.000000
v 0.480000 0.100000 -0.480000
v 0.480000 0.100000 0.480000
v -0.480000 0.100000 0.480000
v -0.480000 0.100000 -0.480000
f 37//11 38//11 39//11
f 37//11 39//11 40//11
vn 0.000000 0.000000 -1.000000
v -0.090000 -0.160000 0.401000
v 0.090000 -0.160000 0.401000
v 0.090000 -0.500000 0.401000
v -0.090000 -0.500000 0.401000
f 41//12 42//12 43//12
f 41//12 43//12 44//12
vn 0.000000 0.000000 1.000000
v -0.090000 -0.500000 0.430000
v 0.090000 -0.500000 0.430000
v 0.090000 -0.160000 0.430000
v -0.090000 -0.160000 0.430000
f 45//13 46//13 47//13
f 45//13 47//13 48//13
vn -1.000000 0.000000 0.000000
v -0.090000 -0.500000 0.401000
v -0.090000 -0.500000 0.430000
v -0.090000 -0.160000 0.430000
v -0.090000 -0.160000 0.401000
f 49//14 50//14 51//14
f 49//14 51//14 52//14
vn 1.000000 0.000000 -0.000000
v 0.090000 -0.160000 0.401000
v 0.090000 -0.160000 0.430000
v 0.090000 -0.500000 0.430000
v 0.090000 -0.500000 0.401000
f 53//15 54//15 55//15
f 53//15 55//15 56//15
vn -0.000000 1.000000 0.000000
v -0.090000 -0.160000 0.430000
v 0.090000 -0.160000 0.430000
v 0.090000 -0.160000 0.401000
v -0.090000 -0.160000 0.401000
f 57//16 58//16 59//16
f 57//16 59//16 60//16
vn 0.000000 -1.000000 0.000000
v -0.090000 -0.500000 0.401000
v 0.090000 -0.500000 0.401000
v 0.090000 -0.500000 0.430000
v -0.090000 -0.500000 0.430000
f 61//17 62//17 63//17
f 61//17 63//17 64//17
vn 0.000000 0.000000 -1.000000
v -0.335000 -0.070000 0.401000
v -0.185000 -0.070000 0.401000
v -0.185000 -0.240000 0.401000
v -0.335000 -0.240000 0.401000
f 65//18 66//18 67//18
f 65//18 67//18 68//18
vn 0.000000 0.000000 1.000000
v -0.335000 -0.240000 0.420000
v -0.185000 -0.240000 0.420000
v -0.185000 -0.070000 0.420000
v -0.335000 -0.070000 0.420000
f 69//19 70//19 71//19
f 69//19 71//19 72//19
vn -1.000000 0.000000 0.000000
v -0.335000 -0.240000 0.401000
v -0.335000 -0.240000 0.420000
v -0.335000 -0.070000 0.420000
v -0.335000 -0.070000 0.401000
f 73//20 74//20 75//20
f 73//20 75//20 76//20
vn 1.000000 0.000000 -0.000000
v -0.185000 -0.070000 0.401000
v -0.185000 -0.070000 0.420000
v -0.185000 -0.240000 0.420000
v -0.185000 -0.240000 0.401000
f 77//21 78//21 79//21
f 77//21 79//21 80//21
vn -0.000000 1.000000 0.000000
v -0.335000 -0.070000 0.420000
v -0.185000 -0.070000 0.420000
v -0.185000 -0.070000 0.401000
v -0.335000 -0.070000 0.401000
f 81//22 82//22 83//22
f 81//22 83//22 84//22
vn 0.000000 -1.000000 0.000000
v -0.335000 -0.240000 0.401000
v -0.185000 -0.240000 0.401000
v -0.185000 -0.240000 0.420000
v -0.335000 -0.240000 0.420000
f 85//23 86//23 87//23
f 85//23 87//23 88//23
vn 0.000000 0.000000 -1.000000
v -0.345000 -0.235000 0.400000
v -0.175000 -0.235000 0.400000
v -0.175000 -0.255000 0.400000
v -0.345000 -0.255000 0.400000
f 89//24 90//24 91//24
f 89//24 91//24 92//24
vn 0.000000 0.000000 1.000000
v -0.345000 -0.255000 0.440000
v -0.175000 -0.255000 0.440000
v -0.175000 -0.235000 0.440000
v -0.345000 -0.235000 0.440000
f 93//25 94//25 95//25
f 93//25 95//25 96//25
vn -1.000000 0.000000 0.000000
v -0.345000 -0.255000 0.400000
v -0.345000 -0.255000 0.440000
v -0.345000 -0.235000 0.440000
v -0.345000 -0.235000 0.400000
f 97//26 98//26 99//26
f 97//26 99//26 100//26
vn 1.000000 0.000000 -0.000000
v -0.175000 -0.235000 0.400000
v -0.175000 -0.235000 0.440000
v -0.175000 -0.255000 0.440000
v -0.175000 -0.255000 0.400000
f 101//27 102//27 103//27
f 101//27 103//27 104//27
vn -0.000000 1.000000 0.000000
v -0.345000 -0.235000 0.440000
v -0.175000 -0.235000 0.440000
v -0.175000 -0.235000 0.400000
v -0.345000 -0.235000 0.400000
f 105//28 106//28 107//28
f 105//28 107//28 108//28
vn 0.000000 -1.000000 0.000000
v -0.345000 -0.255000 0.400000
v -0.175000 -0.255000 0.400000
v -0.175000 -0.255000 0.440000
v -0.345000 -0.255000 0.440000
f 109//29 110//29 111//29
f 109//29 111//29 112//29
vn 0.000000 0.000000 -1.000000
v 0.185000 -0.070000 0.401000
v 0.335000 -0.070000 0.401000
v 0.335000 -0.240000 0.401000
v 0.185000 -0.240000 0.401000
f 113//30 114//30 115//30
f 113//30 115//30 116//30
vn 0.000000 0.000000 1.000000
v 0.185000 -0.240000 0.420000
v 0.335000 -0.240000 0.420000
v 0.335000 -0.070000 0.420000
v 0.185000 -0.070000 0.420000
f 117//31 118//31 119//31
f 117//31 119//31 120//31
vn -1.000000 0.000000 0.000000
v 0.185000 -0.240000 0.401000
v 0.185000 -0.240000 0.420000
v 0.185000 -0.070000 0.420000
v 0.185000 -0.070000 0.401000
f 121//32 122//32 123//32
f 121//32 123//32 124//32
vn 1.000000 0.000000 -0.000000
v 0.335000 -0.070000 0.401000
v 0.335000 -0.070000 0.420000
v 0.335000 -0.240000 0.420000
v 0.335000 -0.240000 0.401000
f 125//33 126//33 127//33
f 125//33 127//33 128//33
vn -0.000000 1.000000 0.000000
v 0.185000 -0.070000 0.420000
v 0.335000 -0.070000 0.420000
v 0.335000 -0.070000 0.401000
v 0.185000 -0.070000 0.401000
f 129//34 130//34 131//34
f 129//34 131//34 132//34
vn 0.000000 -1.000000 0.000000
v 0.185000 -0.240000 0.401000
v 0.335000 -0.240000 0.401000
v 0.335000 -0.240000 0.420000
v 0.185000 -0.240000 0.420000
f 133//35 134//35 135//35
f 133//35 135//35 136//35
vn 0.000000 0.000000 -1.000000
v 0.175000 -0.235000 0.400000
v 0.345000 -0.235000 0.400000
v 0.345000 -0.255000 0.400000
v 0.175000 -0.255000 0.400000
f 137//36 138//36 139//36
f 137//36 139//36 140//36
vn 0.000000 0.000000 1.000000
v 0.175000 -0.255000 0.440000
v 0.345000 -0.255000 0.440000
v 0.345000 -0.235000 0.440000
v 0.175000 -0.235000 0.440000
f 141//37 142//37 143//37
f 141//37 143//37 144//37
vn -1.000000 0.000000 0.000000
v 0.175000 -0.255000 0.400000
v 0.175000 -0.255000 0.440000
v 0.175000 -0.235000 0.440000
v 0.175000 -0.235000 0.400000
f 145//38 146//38 147//38
f 145//38 147//38 148//38
vn 1.000000 0.000000 -0.000000
v 0.345000 -0.235000 0.400000
v 0.345000 -0.235000 0.440000
v 0.345000 -0.255000 0.440000
v 0.345000 -0.255000 0.400000
f 149//39 150//39 151//39
f 149//39 151//39 152//39
vn -0.000000 1.000000 0.000000
v 0.175000 -0.235000 0.440000
v 0.345000 -0.235000 0.440000
v 0.345000 -0.235000 0.400000
v 0.175000 -0.235000 0.400000
f 153//40 154//40 155//40
f 153//40 155//40 156//40
vn 0.000000 -1.000000 0.000000
v 0.175000 -0.255000 0.400000
v 0.345000 -0.255000 0.400000
v 0.345000 -0.255000 0.440000
v 0.175000 -0.255000 0.440000
f 157//41 158//41 159//41
f 157//41 159//41 160//41
